<?xml version="1.0" encoding="UTF-8"?>
<svg width="24px" height="18px" viewBox="0 0 24 18" version="1.1" xmlns="http://www.w3.org/2000/svg" xmlns:xlink="http://www.w3.org/1999/xlink">
    <!-- Generator: sketchtool 57.1 (101010) - https://sketch.com -->
    <title>0295FE13-24AC-42A1-BEA8-1F7C3013CCF8@2x</title>
    <desc>Created with sketchtool.</desc>
    <g id="Page-1" stroke="none" stroke-width="1" fill="none" fill-rule="evenodd">
        <g id="22cms_reports" transform="translate(-25.000000, -337.000000)">
            <g id="Skin1">
                <g id="Group">
                    <g id="Provider_menu1" transform="translate(0.000000, 50.000000)">
                        <g id="Group-10">
                            <g id="Group-20" transform="translate(0.000000, 39.000000)">
                                <g id="Menu_item-Copy-5" transform="translate(0.000000, 230.000000)">
                                    <g id="Icon_unselected" transform="translate(25.000000, 14.000000)">
                                        <g id="ic_dashboard-ic_sms" transform="translate(0.000000, 0.730769)">
                                            <g id="ic_supervisor_account_black_24px" transform="translate(0.000000, -0.048991)">
                                                <polygon id="Shape" points="0 0.04899133 24 0.04899133 24 24.0489913 0 24.0489913"></polygon>
                                                <path d="M17.4000006,12.0489913 C19.0560007,12.0489913 20.3880007,10.7049913 20.3880007,9.04899126 C20.3880007,7.39299126 19.0560007,6.04899126 17.4000006,6.04899126 C15.7440006,6.04899126 14.4000006,7.39299126 14.4000006,9.04899126 C14.4000006,10.7049913 15.7440006,12.0489913 17.4000006,12.0489913 Z M8.39999993,10.8489915 C10.3919999,10.8489915 11.9879998,9.24099145 11.9879998,7.24899137 C11.9879998,5.25699129 10.3919999,3.64899123 8.39999993,3.64899123 C6.40800001,3.64899123 4.80000007,5.25699129 4.80000007,7.24899137 C4.80000007,9.24099145 6.40800001,10.8489915 8.39999993,10.8489915 Z M17.3999999,14.4489909 C15.2039998,14.4489909 10.7999997,15.5529909 10.7999997,17.7489909 L10.7999997,20.4489909 L24,20.4489909 L24,17.7489909 C24,15.5529909 19.5959999,14.4489909 17.3999999,14.4489909 Z M8.39999979,13.2489914 C5.60399986,13.2489914 -2.72848411e-12,14.6529914 -2.72848411e-12,17.4489915 L-2.72848411e-12,20.4489917 L8.39999979,20.4489917 L8.39999979,17.7489914 C8.39999979,16.7289915 8.79599978,14.9409914 11.2439997,13.5849914 C10.1999997,13.3689914 9.19199977,13.2489914 8.39999979,13.2489914 Z" id="Shape" fill="#7f8797" fill-rule="nonzero"></path>
                                            </g>
                                        </g>
                                    </g>
                                </g>
                            </g>
                        </g>
                    </g>
                </g>
            </g>
        </g>
    </g>
</svg>