<?xml version="1.0" encoding="UTF-8"?>
<svg width="99px" height="25px" viewBox="0 0 99 25" version="1.1" xmlns="http://www.w3.org/2000/svg" xmlns:xlink="http://www.w3.org/1999/xlink">
    <!-- Generator: Sketch 61 (89581) - https://sketch.com -->
    <title>mobiotics_logo</title>
    <desc>Created with Sketch.</desc>
    <g id="Page-1" stroke="none" stroke-width="1" fill="none" fill-rule="evenodd">
        <g id="vdrm_sys_login" transform="translate(-15.000000, -13.000000)" fill-rule="nonzero">
            <g id="header0">
                <g id="header">
                    <g id="mobiotics_logo">
                        <g transform="translate(15.000000, 13.750000)">
                            <path d="M0.0133511184,0.862276975 C-0.0180346338,0.786728322 0.00735572192,0.69951797 0.0743895799,0.652623128 C3.15638958,-0.924646102 7.1424665,0.214738513 7.1424665,5.63743082 L7.1424665,18.6633924 C7.1424665,21.1473924 8.73742804,22.0895077 8.8382742,22.1443539 C7.18581266,23.6658924 0.573312657,25.9508539 0.573312657,17.4877385 L0.573312657,5.71173851 C0.573312657,3.36573851 0.573312657,2.36789236 0.0133511184,0.862276975" id="Path" fill="#DB0A5B"></path>
                            <path d="M11.5743896,2.77923851 C13.5046203,2.77923851 15.2517357,4.1698539 15.2517357,7.42966159 L15.2517357,17.1551231 C15.2517357,19.2056616 16.5538896,19.9876616 16.645005,20.0372001 C15.1623896,21.4172001 9.81312035,22.3725847 9.83788958,16.1864693 L9.83788958,7.49246928 C9.83788958,5.51358467 9.83788958,4.69708467 9.33719727,3.40908467 C10.0158299,3.0092286 10.7868056,2.79278229 11.5743896,2.78100774" id="Path" fill="#307FE2"></path>
                            <path d="M19.3828896,5.98862313 C21.1167357,5.93908467 22.7028511,7.14746928 22.5940434,10.0437001 L22.3808511,15.6495077 C22.314505,17.3851231 23.3574665,18.0362001 23.430005,18.0822001 C22.5524665,19.7408539 17.680005,19.8806231 17.8330434,14.6560847 L18.013505,9.92339236 C18.0763127,8.25677697 18.1037357,7.56500774 17.7286588,6.46896928 C18.0860434,6.1478539 18.8698127,6.00631544 19.3846588,5.99304621" id="Path" fill="#AADB1E"></path>
                            <path d="M38.978005,8.69731171 C38.4295434,8.69643082 37.8934665,8.85300774 37.4263896,9.14846928 C37.2029419,9.28807473 36.9973704,9.45443315 36.8142357,9.6438539 L36.5957357,9.88270005 C36.5470819,9.94462313 36.5019665,10.0074308 36.459505,10.0720077 C36.2135927,9.70140278 35.8915147,9.38746721 35.5147357,9.15112313 C35.1628703,8.92441404 34.7654155,8.77793562 34.3505819,8.72208467 L34.083428,8.69908467 L33.9330434,8.69908467 C32.2646588,8.70527697 30.9129665,10.1003154 30.9076588,11.821777 L30.9076588,15.7627385 C30.9082579,15.9002451 30.9632814,16.03192 31.0606973,16.1289693 C31.1566626,16.2304585 31.2904264,16.2875944 31.4301,16.286756 C31.5697735,16.2859176 31.7028418,16.2271801 31.7975819,16.1245462 C31.8879211,16.0257547 31.937812,15.8966068 31.9373511,15.7627385 L31.9373511,11.8244308 C31.9429766,11.2767945 32.1600972,10.7525354 32.5433127,10.361277 C32.8983844,9.97050218 33.4042188,9.75109247 33.9321588,9.7588539 C34.0657357,9.7588539 34.198428,9.77123851 34.3284665,9.79689236 C35.2528896,10.0092001 35.9110434,10.8522385 35.9145819,11.8288539 L35.9145819,15.8512001 L35.9366973,15.9166616 C35.9699043,16.0345171 36.0484768,16.1344028 36.1551973,16.1944308 L36.1888127,16.2121231 L36.2277357,16.2324693 L36.3347742,16.2873154 L36.5541588,16.2873154 L36.6514665,16.2342385 L36.7001203,16.2103539 L36.7328511,16.1926616 C36.8400903,16.1326057 36.9190248,16.0323461 36.9522357,15.9140077 L36.9734665,15.8485462 L36.9734665,11.8200077 C36.9642858,11.2776967 37.1748743,10.7547352 37.5573127,10.3701231 C37.918723,9.9847208 38.4231195,9.76548755 38.9514665,9.76416159 C39.4760434,9.76416159 39.978505,9.98266159 40.3447357,10.3701231 C40.7251203,10.7549308 40.9436203,11.2795077 40.9506973,11.8297385 L40.9506973,15.7627385 C40.9506973,15.8972001 41.0011203,16.0272385 41.0913511,16.1245462 C41.1860912,16.2271801 41.3191595,16.2859176 41.4588331,16.286756 C41.5985066,16.2875944 41.7322704,16.2304585 41.8282357,16.1289693 C41.9256516,16.03192 41.9806751,15.9002451 41.9812742,15.7627385 L41.9812742,11.8200077 C41.9759665,10.0976616 40.6242742,8.70350774 38.9558896,8.69731171" id="Path" fill="#565656"></path>
                            <path d="M47.7197742,8.68132648 C48.6711841,8.67532833 49.5770785,9.08815732 50.1966973,9.81016159 C51.5581203,11.315777 51.5581203,13.6520462 50.1966973,15.1576616 C49.5715256,15.8722419 48.6692244,16.2834334 47.7197742,16.2864308 C46.770324,16.2834334 45.8680228,15.8722419 45.2428511,15.1576616 C43.881428,13.6520462 43.881428,11.315777 45.2428511,9.81016159 C45.8624699,9.08815732 46.7683643,8.67532833 47.7197742,8.68132648 Z M47.7206588,9.74293082 C47.0575181,9.74526156 46.4284495,10.0370176 45.9983127,10.5417385 C45.0229017,11.6467527 45.0229017,13.3051474 45.9983127,14.4101616 C46.4249295,14.9191074 47.0556788,15.2121174 47.7197742,15.2098669 L47.7197742,15.2098669 C48.3864695,15.2118712 49.0171194,14.9189074 49.4438896,14.4101616 C50.4193005,13.3051474 50.4193005,11.6467527 49.4438896,10.5417385 C49.0135517,10.0367835 48.3841088,9.74500375 47.7206588,9.74293082 Z" id="Combined-Shape" fill="#565656"></path>
                            <path d="M54.0146973,5.57992453 C54.1538515,5.58009118 54.2873385,5.63507513 54.3862357,5.73296928 C54.4922161,5.83343261 54.5515231,5.97352552 54.5498896,6.11954621 L54.5498896,6.11954621 L54.5498896,9.78716159 C54.8170434,9.50762313 55.124005,9.27143082 55.4601588,9.08831544 C55.9506356,8.81884098 56.5016903,8.67879392 57.0613127,8.68139236 L57.0613127,8.68139236 C58.0276889,8.67379497 58.9519351,9.08557507 59.5930819,9.81104621 C60.9766203,11.3184308 60.9766203,13.6785847 59.5930819,15.1850847 C58.5191588,16.3386231 56.8401588,16.6296616 55.4601588,15.9016231 C55.3670604,15.8517795 55.2764288,15.7974596 55.1885819,15.7388539 C55.0691588,15.6680847 54.9568127,15.5849308 54.8541973,15.490277 C54.737428,15.3885462 54.6259665,15.2806231 54.5215819,15.1656231 C53.8448511,14.4375847 53.4750819,13.4645077 53.491005,12.4560462 L53.491005,12.4560462 L53.491005,6.11954621 C53.4898086,5.976906 53.5444112,5.83944734 53.6431588,5.73650774 C53.7404504,5.63580331 53.8746738,5.57923773 54.0146973,5.57992453 Z M57.0728127,9.77300774 C56.4079489,9.76315805 55.7706904,10.0384769 55.3221588,10.5293539 C54.8335453,11.0242992 54.5538872,11.6881308 54.5410434,12.3835077 L54.5410434,12.3835077 L54.5410434,12.442777 C54.5211749,13.1648199 54.7836209,13.8661566 55.2726203,14.397777 C55.389294,14.5155846 55.5133942,14.6257974 55.6441588,14.7277385 L55.6441588,14.7277385 L55.6653896,14.7436616 C56.0689107,15.0412066 56.5582052,15.1995443 57.0595434,15.1948154 L57.0595434,15.1948154 C57.7256588,15.2010077 58.3696588,14.915277 58.8225819,14.4048539 C59.8030493,13.312905 59.8030493,11.657572 58.8225819,10.5656231 C58.3830747,10.0585511 57.7438361,9.76898694 57.0728127,9.77300774 Z" id="Combined-Shape" fill="#565656"></path>
                            <path d="M63.4800819,8.68135583 C63.3382624,8.67994336 63.2021691,8.73726264 63.1041203,8.83973851 C63.0045831,8.94151649 62.9495364,9.07865594 62.9510819,9.22100774 L62.9510819,15.7494693 C62.9510819,15.892777 63.0050434,16.030777 63.1032357,16.1316231 C63.2001645,16.2324308 63.3340421,16.2893049 63.4738896,16.2890853 C63.6130438,16.2889243 63.7465308,16.2339404 63.845428,16.1360462 C63.9517344,16.0357367 64.0113707,15.8956236 64.0099665,15.7494693 L64.0099665,9.22100774 C64.0112217,9.07871055 63.9562178,8.94167772 63.856928,8.83973851 C63.7586683,8.73703678 63.6222077,8.6796977 63.4800819,8.68135583" id="Path" fill="#565656"></path>
                            <path d="M70.124428,8.68132648 C71.075838,8.67532833 71.9817323,9.08815732 72.6013511,9.81016159 C73.9627742,11.315777 73.9627742,13.6520462 72.6013511,15.1576616 C71.9761794,15.8722419 71.0738782,16.2834334 70.124428,16.2864308 C69.1749778,16.2834334 68.2726767,15.8722419 67.647505,15.1576616 C66.2860819,13.6520462 66.2860819,11.315777 67.647505,9.81016159 C68.2671238,9.08815732 69.1730181,8.67532833 70.124428,8.68132648 Z M70.1253127,9.74293082 C69.462172,9.74526156 68.8331034,10.0370176 68.4029665,10.5417385 C67.4275555,11.6467527 67.4275555,13.3051474 68.4029665,14.4101616 C68.8295834,14.9191074 69.4603326,15.2121174 70.124428,15.2098671 L70.124428,15.2098671 C70.7905478,15.212134 71.4215749,14.9191456 71.8485434,14.4101616 C72.8239544,13.3051474 72.8239544,11.6467527 71.8485434,10.5417385 C71.4182056,10.0367835 70.7887627,9.74500375 70.1253127,9.74293082 Z" id="Combined-Shape" fill="#565656"></path>
                            <path d="M78.181505,8.68139236 L77.4490434,8.68139236 L77.4490434,6.17970005 C77.4477719,6.03462181 77.3858636,5.89669151 77.2783127,5.79931544 C77.1806528,5.69882063 77.0468979,5.64149708 76.9067742,5.64008467 C76.7660646,5.64142255 76.632196,5.70099086 76.537005,5.80462313 C76.4354814,5.90310937 76.3777881,6.03825833 76.3768896,6.17970005 L76.3768896,8.68139236 L75.6983896,8.68139236 C75.3286203,8.68139236 75.2242357,8.88043082 75.195928,8.99720005 C75.1791203,9.0803539 75.172928,9.16527697 75.1755819,9.25020005 C75.1716553,9.36931749 75.2023855,9.48701418 75.2640434,9.58900774 C75.3746203,9.71462313 75.536505,9.77831544 75.7010434,9.76062313 L76.3945819,9.76062313 L76.3945819,14.8480462 C76.381705,15.23192 76.5253903,15.6045438 76.7926588,15.8803924 C77.056695,16.1489988 77.4201555,16.2963043 77.7966973,16.2873154 C77.935112,16.2846772 78.0666989,16.2266898 78.1620434,16.1263154 C78.2695483,16.0292777 78.3314727,15.8916323 78.3327742,15.7468154 C78.3304194,15.6026289 78.2705442,15.4653617 78.1664665,15.3655462 C78.0677895,15.2581428 77.9292637,15.1960781 77.783428,15.1939308 C77.7002743,15.1837842 77.6231332,15.1453698 77.564928,15.0851231 C77.4910792,15.0284226 77.4494874,14.9392972 77.4534665,14.846277 L77.4534665,9.7588539 L78.1753127,9.7588539 C78.4551196,9.73604202 78.669164,9.49993511 78.664505,9.21923851 C78.6682233,8.9392191 78.4544296,8.70416196 78.1753127,8.68139236" id="Path" fill="#565656"></path>
                            <path d="M82.1658127,8.68135583 C82.0236868,8.6796977 81.8872262,8.73703678 81.7889665,8.83973851 C81.6894292,8.94151649 81.6343825,9.07865594 81.635928,9.22100774 L81.635928,15.7494693 C81.635928,15.892777 81.6907742,16.030777 81.7889665,16.1316231 C81.8856824,16.2322092 82.0191953,16.2890847 82.1587357,16.2890847 C82.29789,16.2889243 82.431377,16.2339404 82.5302742,16.1360462 C82.6365806,16.0357367 82.6962168,15.8956236 82.6948127,15.7494693 L82.6948127,9.22100774 C82.6960679,9.07871055 82.641064,8.94167772 82.5417742,8.83973851 C82.4437254,8.73726264 82.3076321,8.67994336 82.1658127,8.68135583" id="Path" fill="#565656"></path>
                            <path d="M90.6236203,14.6092001 C90.1061203,15.0125847 89.4736203,15.2240077 88.8251973,15.2098539 C88.1292076,15.2105858 87.4642592,14.921854 86.9896203,14.4128154 C86.4769501,13.900788 86.1897455,13.2053836 86.1916973,12.4808154 C86.1916973,11.7518924 86.4800819,11.0539308 86.9896203,10.5488154 C87.4628313,10.0368948 88.1280669,9.74547354 88.8251973,9.74470005 C89.4788413,9.72838998 90.1167541,9.9464664 90.6236203,10.3595077 C90.7268523,10.4487301 90.8630563,10.4900314 90.9984563,10.4731697 C91.1338562,10.4563079 91.2557705,10.3828623 91.3339665,10.2710462 C91.4314078,10.159085 91.4781596,10.0117847 91.4631203,9.86412313 C91.4528832,9.72177177 91.3778848,9.59199193 91.2596588,9.51204621 C90.5635894,8.95369204 89.6924993,8.65946413 88.800428,8.68139236 C87.8336405,8.68241797 86.9095702,9.07986414 86.2438896,9.78096928 C85.5361973,10.4886616 85.1381203,11.4626231 85.1381203,12.4790462 C85.1381203,13.4963539 85.5361973,14.4694308 86.2438896,15.1780077 C87.5890349,16.5291904 89.7327447,16.6592274 91.2313511,15.4805462 C91.3612646,15.3914173 91.448392,15.2523977 91.4719665,15.0966231 C91.4822204,14.9548619 91.4332102,14.8151987 91.3366203,14.7109308 C91.2605784,14.594204 91.137917,14.5159139 91.0000231,14.4960938 C90.8621293,14.4762737 90.7223832,14.5168467 90.6165434,14.6074308" id="Path" fill="#565656"></path>
                            <path d="M97.9942357,12.4348154 L97.9827357,12.4348154 C97.4372397,12.1250996 96.8397524,11.9176429 96.2196973,11.8226616 L96.1781203,11.8226616 C95.7054774,11.7719009 95.2497663,11.6178833 94.8432357,11.3715077 C94.6367869,11.2278168 94.5135827,10.9923085 94.5132742,10.740777 C94.5406973,10.4630077 94.6901973,10.2135462 94.9175434,10.0631616 C95.2613412,9.81097851 95.6826822,9.68733088 96.1082357,9.71373851 C96.3125819,9.71639236 96.5151588,9.75531544 96.7071203,9.82873851 C96.8769665,9.88800774 97.041505,9.96320005 97.1971973,10.0543154 C97.3113127,10.1250847 97.4891203,10.2445077 97.731505,10.4134693 C97.846505,10.4868924 97.9853896,10.510777 98.1180819,10.4807001 C98.2553662,10.4558352 98.3756312,10.3738364 98.448928,10.2551231 C98.5203902,10.134865 98.5437722,9.99204515 98.5143896,9.85527697 C98.4877908,9.71606832 98.4097904,9.59196255 98.2958896,9.50762313 L98.2826203,9.50762313 C98.0805433,9.37503924 97.8749436,9.24790371 97.6660434,9.1263539 C97.4504345,9.01238814 97.2247896,8.91851751 96.9919665,8.84593082 C96.7040529,8.74875907 96.4023717,8.69857843 96.098505,8.69731544 C95.4587917,8.67472381 94.8279605,8.85222239 94.2938896,9.20508467 C93.7758383,9.55909609 93.4649401,10.1451723 93.4623511,10.7726231 C93.4476518,11.3742735 93.7679286,11.9344171 94.2938896,12.2269308 C94.630928,12.477277 95.1696588,12.6780847 95.9242357,12.8090077 L95.9551973,12.8249308 L95.9817357,12.8249308 C96.6372357,12.9381616 97.1228896,13.1142001 97.4077357,13.3486231 C97.6465819,13.5167001 97.7960819,13.788277 97.812005,14.0855077 C97.799524,14.3816393 97.6340196,14.6499976 97.375005,14.7940847 L97.3617357,14.7940847 C96.9791959,15.0815072 96.5071982,15.2241094 96.029505,15.1965847 C95.4633511,15.1965847 94.814928,14.9276616 94.1081203,14.3942385 C94.0040592,14.2996751 93.8648211,14.2535995 93.724893,14.2674237 C93.584965,14.2812479 93.4574348,14.353679 93.3738896,14.466777 C93.279039,14.5704863 93.2325155,14.7094964 93.2458323,14.8494068 C93.2591491,14.9893172 93.3310617,15.1170545 93.4437742,15.2010077 C94.1907723,15.8644141 95.1468156,16.2447653 96.1453896,16.2758154 C96.8176973,16.2846616 97.4731973,16.065277 98.0136973,15.6521616 C98.5435819,15.2859308 98.862928,14.6711231 98.8646973,14.0129693 C98.8737375,13.3680197 98.5405095,12.7665262 97.988928,12.4321616" id="Path" fill="#565656"></path>
                            <path d="M63.4623896,6.68923851 C63.3202069,6.6915654 63.1847743,6.75028879 63.0858952,6.85248596 C62.9870161,6.95468312 62.9327932,7.09197954 62.9351588,7.23416159 C62.9351588,7.53493082 63.1713511,7.77820005 63.4623896,7.77820005 C63.7543127,7.77820005 63.9896203,7.53404621 63.9896203,7.23416159 C63.9935685,6.93846563 63.7580548,6.69504878 63.4623896,6.68923851" id="Path" fill="#565656"></path>
                            <path d="M82.1481203,7.78262313 C82.4400434,7.78262313 82.6753511,7.5393539 82.6753511,7.23858467 C82.6797835,6.9428446 82.4438539,6.69939374 82.1481203,6.69454621 C81.8523868,6.69939374 81.6164572,6.9428446 81.6208896,7.23858467 C81.6217742,7.53846928 81.8570819,7.78173851 82.1481203,7.78262313" id="Path" fill="#565656"></path>
                        </g>
                    </g>
                </g>
            </g>
        </g>
    </g>
</svg>