<svg xmlns="http://www.w3.org/2000/svg" xmlns:xlink="http://www.w3.org/1999/xlink" viewBox="0 0 310.36 112.11"><defs><style>.cls-1{fill:#333;}.cls-2{fill:url(#linear-gradient);}.cls-3{fill:#fff;fill-rule:evenodd;}</style><linearGradient id="linear-gradient" x1="-2186.01" y1="-380.16" x2="-2186.31" y2="-379.86" gradientTransform="matrix(249, 0, 0, -232, 544436.21, -88091.14)" gradientUnits="userSpaceOnUse"><stop offset="0" stop-color="#83aeff"/><stop offset="1" stop-color="#0042ff"/></linearGradient></defs><title>Asset 5</title><g id="Layer_2" data-name="Layer 2"><g id="Objects"><path class="cls-1" d="M172.89,32,162.48,76.71h-9.25L142.82,32h8l7,30,7-30Z"/><path class="cls-1" d="M194.58,32,205,76.71h-8l-1.58-6.79H184.52l-1.58,6.79h-8L185.33,32Zm-8,29.24h6.79l-3.41-14.58Z"/><path class="cls-1" d="M240.93,62.22a15.68,15.68,0,0,1-4.08,10.88,12.83,12.83,0,0,1-19.58,0,15.68,15.68,0,0,1-4.08-10.88V32H221V62.22a6.88,6.88,0,0,0,1.8,4.77,5.59,5.59,0,0,0,4.29,2,5.54,5.54,0,0,0,4.29-2,6.88,6.88,0,0,0,1.8-4.77V32h7.78Z"/><path class="cls-1" d="M273.78,32v8.64h-7.91V76.71h-7.81V40.64h-7.91V32Z"/><path class="cls-1" d="M310.36,32V76.71h-7.78v-18H290.51v18h-7.78V32h7.78V50h12.07V32Z"/><g id="Page-1"><g id="VAuth"><g id="Group-3"><g id="Group-4"><g id="Group-5"><path id="Shape" class="cls-2" d="M6.82,77.94c13.92,28.22,44.65,41.65,68.61,30s53.79-61,42.4-84.13S49-6.06,25,5.63-7.12,49.69,6.82,77.94Z"/><path id="Fill-420" class="cls-3" d="M60.05,78.63A22.82,22.82,0,1,1,82.17,49.26H89.4A30,30,0,1,0,60.05,85.54,30,30,0,0,0,89.38,62.49H82.14A23.07,23.07,0,0,1,60.05,78.63"/><path id="Fill-422" class="cls-3" d="M67.63,52.05a6.68,6.68,0,0,1-3.87,6.07v9H58v-9a6.7,6.7,0,1,1,9.6-6"/></g></g></g></g></g></g></g></svg>